<svg xmlns="http://www.w3.org/2000/svg" xmlns:xlink="http://www.w3.org/1999/xlink" version="1.1" style="display:none">
	<symbol id="arrow" viewBox="8 4 8 16" stroke-linecap="round" stroke-linejoin="round">
		<path fill="none" d="M15 18l-6-6 6-6"/>
	</symbol>
	<symbol id="message" viewbox="0 7 172 172">
		<title>Write message</title>
		<g fill-rule="nonzero" stroke-linecap="butt" stroke-linejoin="miter" stroke-miterlimit="10" stroke-dasharray="" stroke-dashoffset="0">
				<path d="M28.66667,28.66667c-7.33867,0 -13.32686,5.53715 -14.16536,12.65365l71.4987,44.67969l71.49869,-44.67969c-0.83849,-7.1165 -6.82669,-12.65365 -14.16536,-12.65365zM14.33333,55.55566v73.44434c0,7.91917 6.41417,14.33333 14.33333,14.33333h58.5651l70.4349,-70.4349v-17.34277l-67.87337,42.41211c-2.322,1.45483 -5.26459,1.45483 -7.58659,0zM159.15039,93.16667c-0.91644,0 -1.83477,0.35105 -2.53352,1.0498l-7.16667,7.16667l14.33333,14.33333l7.16667,-7.16667c1.3975,-1.3975 1.3975,-3.66956 0,-5.06706l-9.26628,-9.26628c-0.70233,-0.69875 -1.61709,-1.0498 -2.53353,-1.0498zM144.38314,106.4502l-36.88314,36.88314v14.33333h14.33333l36.88314,-36.88314z"/>
		</g>
	</symbol>
	<symbol id="instagram" viewBox="0 0 50 50">
		<title>Instagram</title>
		<path d="M 16 3 C 8.8324839 3 3 8.8324839 3 16 L 3 34 C 3 41.167516 8.8324839 47 16 47 L 34 47 C 41.167516 47 47 41.167516 47 34 L 47 16 C 47 8.8324839 41.167516 3 34 3 L 16 3 z M 16 5 L 34 5 C 40.086484 5 45 9.9135161 45 16 L 45 34 C 45 40.086484 40.086484 45 34 45 L 16 45 C 9.9135161 45 5 40.086484 5 34 L 5 16 C 5 9.9135161 9.9135161 5 16 5 z M 37 11 A 2 2 0 0 0 35 13 A 2 2 0 0 0 37 15 A 2 2 0 0 0 39 13 A 2 2 0 0 0 37 11 z M 25 14 C 18.936712 14 14 18.936712 14 25 C 14 31.063288 18.936712 36 25 36 C 31.063288 36 36 31.063288 36 25 C 36 18.936712 31.063288 14 25 14 z M 25 16 C 29.982407 16 34 20.017593 34 25 C 34 29.982407 29.982407 34 25 34 C 20.017593 34 16 29.982407 16 25 C 16 20.017593 20.017593 16 25 16 z"/>
	</symbol>

	<symbol id="phone" viewBox="0 0 24 24">
		<title>Phone</title>
		<path d="M22 16.92v3a2 2 0 0 1-2.18 2 19.79 19.79 0 0 1-8.63-3.07 19.5 19.5 0 0 1-6-6 19.79 19.79 0 0 1-3.07-8.67A2 2 0 0 1 4.11 2h3a2 2 0 0 1 2 1.72 12.84 12.84 0 0 0 .7 2.81 2 2 0 0 1-.45 2.11L8.09 9.91a16 16 0 0 0 6 6l1.27-1.27a2 2 0 0 1 2.11-.45 12.84 12.84 0 0 0 2.81.7A2 2 0 0 1 22 16.92z"/>
	</symbol>

	<symbol id="phone-handset" viewBox="0 0 1024 1024">
		<title>Phone</title>
		<path class="path1" d="M819.2 1024c-90.691 0-187.154-25.699-286.706-76.386-91.794-46.736-182.48-113.654-262.258-193.522-79.763-79.853-146.595-170.624-193.272-262.498-50.608-99.61-76.269-196.102-76.269-286.795 0-58.774 54.765-115.55 78.31-137.232 33.85-31.17 87.104-67.568 125.794-67.568 19.245 0 41.803 12.589 70.994 39.616 21.782 20.17 46.27 47.51 70.814 79.067 14.794 19.021 88.592 116.267 88.592 162.917 0 38.27-43.25 64.853-89.037 92.998-17.694 10.875-35.992 22.122-49.226 32.73-14.114 11.315-16.645 17.288-17.061 18.629 48.602 121.128 197.141 269.651 318.203 318.184 1.085-0.341 7.067-2.699 18.592-17.075 10.608-13.234 21.854-31.531 32.73-49.227 28.144-45.789 54.726-89.038 92.998-89.038 46.648 0 143.896 73.798 162.917 88.592 31.557 24.546 58.898 49.032 79.067 70.816 27.029 29.189 39.616 51.747 39.616 70.992 0 38.701-36.378 92.115-67.528 126.099-21.693 23.662-78.491 78.701-137.272 78.701zM204.477 51.203c-13.731 0.262-50.634 17.054-90.789 54.029-38.115 35.099-61.792 73.25-61.792 99.568 0 344.523 423.093 768 767.304 768 26.28 0 64.418-23.795 99.528-62.099 37.003-40.366 53.806-77.413 54.069-91.178-1.662-9.728-28.57-47.563-102.232-104.283-63.322-48.762-114.699-74.886-127.901-75.237-0.925 0.274-6.656 2.467-18.277 17.222-10.104 12.832-20.912 30.418-31.366 47.424-28.683 46.666-55.774 90.744-95.122 90.744-6.336 0-12.597-1.219-18.608-3.624-134.376-53.75-293.31-212.685-347.061-347.061-6.456-16.138-7.485-41.414 24.272-70.184 16.882-15.293 40.25-29.656 62.848-43.546 17.006-10.453 34.59-21.261 47.422-31.366 14.755-11.619 16.95-17.352 17.222-18.277-0.352-13.203-26.475-64.579-75.237-127.902-56.72-73.659-94.554-100.568-104.282-102.23z"></path>
	</symbol>

	<symbol id="logo" viewBox="0 0 95 50">
		<title>Logo</title>
		<path class="cls-1" d="M35.1,0.9a4.5,4.5,0,0,1,2.838,5.7l-12.7,37.93A4.5,4.5,0,0,1,16.7,41.669L29.4,3.738A4.5,4.5,0,0,1,35.1.9Z"/>
		<path class="cls-1" d="M63.3,0.9a4.5,4.5,0,0,1,2.838,5.7l-12.7,37.93A4.5,4.5,0,0,1,44.9,41.669L57.6,3.738A4.5,4.5,0,0,1,63.3.9Z"/>
		<path class="cls-1" d="M91.9,0.2a4.5,4.5,0,0,1,2.838,5.7l-12.7,37.93A4.5,4.5,0,0,1,73.5,40.969L86.2,3.038A4.5,4.5,0,0,1,91.9.2Z"/>
		<path class="cls-2" d="M4.8,0.408a7,7,0,0,1,8.867,4.4L25.788,40.825A7,7,0,1,1,12.519,45.29L0.4,9.275A7,7,0,0,1,4.8.408Z"/>
		<path class="cls-2" d="M33,0.408a7,7,0,0,1,8.867,4.4L53.988,40.825A7,7,0,0,1,40.719,45.29L28.6,9.275A7,7,0,0,1,33,.408Z"/>
		<path class="cls-2" d="M61.2,0.408a7,7,0,0,1,8.867,4.4L82.188,40.825A7,7,0,0,1,68.919,45.29L56.8,9.275A7,7,0,0,1,61.2.408Z"/>
	</symbol>
</svg>