<svg xmlns="http://www.w3.org/2000/svg" xmlns:xlink="http://www.w3.org/1999/xlink" version="1.1" style="display:none">
	<symbol id="arrow" viewBox="8 4 8 16" stroke-linecap="round" stroke-linejoin="round">
		<path fill="none" d="M15 18l-6-6 6-6"/>
	</symbol>
	<symbol id="message" viewbox="0 7 172 172">
		<title>Write message</title>
		<g fill-rule="nonzero" stroke-linecap="butt" stroke-linejoin="miter" stroke-miterlimit="10" stroke-dasharray="" stroke-dashoffset="0">
				<path d="M28.66667,28.66667c-7.33867,0 -13.32686,5.53715 -14.16536,12.65365l71.4987,44.67969l71.49869,-44.67969c-0.83849,-7.1165 -6.82669,-12.65365 -14.16536,-12.65365zM14.33333,55.55566v73.44434c0,7.91917 6.41417,14.33333 14.33333,14.33333h58.5651l70.4349,-70.4349v-17.34277l-67.87337,42.41211c-2.322,1.45483 -5.26459,1.45483 -7.58659,0zM159.15039,93.16667c-0.91644,0 -1.83477,0.35105 -2.53352,1.0498l-7.16667,7.16667l14.33333,14.33333l7.16667,-7.16667c1.3975,-1.3975 1.3975,-3.66956 0,-5.06706l-9.26628,-9.26628c-0.70233,-0.69875 -1.61709,-1.0498 -2.53353,-1.0498zM144.38314,106.4502l-36.88314,36.88314v14.33333h14.33333l36.88314,-36.88314z"/>
		</g>
	</symbol>
	<symbol id="instagram" viewBox="0 0 50 50">
		<title>Instagram</title>
		<path d="M 16 3 C 8.8324839 3 3 8.8324839 3 16 L 3 34 C 3 41.167516 8.8324839 47 16 47 L 34 47 C 41.167516 47 47 41.167516 47 34 L 47 16 C 47 8.8324839 41.167516 3 34 3 L 16 3 z M 16 5 L 34 5 C 40.086484 5 45 9.9135161 45 16 L 45 34 C 45 40.086484 40.086484 45 34 45 L 16 45 C 9.9135161 45 5 40.086484 5 34 L 5 16 C 5 9.9135161 9.9135161 5 16 5 z M 37 11 A 2 2 0 0 0 35 13 A 2 2 0 0 0 37 15 A 2 2 0 0 0 39 13 A 2 2 0 0 0 37 11 z M 25 14 C 18.936712 14 14 18.936712 14 25 C 14 31.063288 18.936712 36 25 36 C 31.063288 36 36 31.063288 36 25 C 36 18.936712 31.063288 14 25 14 z M 25 16 C 29.982407 16 34 20.017593 34 25 C 34 29.982407 29.982407 34 25 34 C 20.017593 34 16 29.982407 16 25 C 16 20.017593 20.017593 16 25 16 z"/>
	</symbol>

	<symbol id="phone" viewBox="0 0 24 24">
		<title>Phone</title>
		<path d="M22 16.92v3a2 2 0 0 1-2.18 2 19.79 19.79 0 0 1-8.63-3.07 19.5 19.5 0 0 1-6-6 19.79 19.79 0 0 1-3.07-8.67A2 2 0 0 1 4.11 2h3a2 2 0 0 1 2 1.72 12.84 12.84 0 0 0 .7 2.81 2 2 0 0 1-.45 2.11L8.09 9.91a16 16 0 0 0 6 6l1.27-1.27a2 2 0 0 1 2.11-.45 12.84 12.84 0 0 0 2.81.7A2 2 0 0 1 22 16.92z"/>
	</symbol>

	<symbol id="phone-handset" viewBox="0 0 1024 1024">
		<title>Phone</title>
		<path class="path1" d="M819.2 1024c-90.691 0-187.154-25.699-286.706-76.386-91.794-46.736-182.48-113.654-262.258-193.522-79.763-79.853-146.595-170.624-193.272-262.498-50.608-99.61-76.269-196.102-76.269-286.795 0-58.774 54.765-115.55 78.31-137.232 33.85-31.17 87.104-67.568 125.794-67.568 19.245 0 41.803 12.589 70.994 39.616 21.782 20.17 46.27 47.51 70.814 79.067 14.794 19.021 88.592 116.267 88.592 162.917 0 38.27-43.25 64.853-89.037 92.998-17.694 10.875-35.992 22.122-49.226 32.73-14.114 11.315-16.645 17.288-17.061 18.629 48.602 121.128 197.141 269.651 318.203 318.184 1.085-0.341 7.067-2.699 18.592-17.075 10.608-13.234 21.854-31.531 32.73-49.227 28.144-45.789 54.726-89.038 92.998-89.038 46.648 0 143.896 73.798 162.917 88.592 31.557 24.546 58.898 49.032 79.067 70.816 27.029 29.189 39.616 51.747 39.616 70.992 0 38.701-36.378 92.115-67.528 126.099-21.693 23.662-78.491 78.701-137.272 78.701zM204.477 51.203c-13.731 0.262-50.634 17.054-90.789 54.029-38.115 35.099-61.792 73.25-61.792 99.568 0 344.523 423.093 768 767.304 768 26.28 0 64.418-23.795 99.528-62.099 37.003-40.366 53.806-77.413 54.069-91.178-1.662-9.728-28.57-47.563-102.232-104.283-63.322-48.762-114.699-74.886-127.901-75.237-0.925 0.274-6.656 2.467-18.277 17.222-10.104 12.832-20.912 30.418-31.366 47.424-28.683 46.666-55.774 90.744-95.122 90.744-6.336 0-12.597-1.219-18.608-3.624-134.376-53.75-293.31-212.685-347.061-347.061-6.456-16.138-7.485-41.414 24.272-70.184 16.882-15.293 40.25-29.656 62.848-43.546 17.006-10.453 34.59-21.261 47.422-31.366 14.755-11.619 16.95-17.352 17.222-18.277-0.352-13.203-26.475-64.579-75.237-127.902-56.72-73.659-94.554-100.568-104.282-102.23z"></path>
	</symbol>

	<symbol id="preloader-logo" viewBox="0 0 256 256" preserveAspectRatio="xMidYMid meet">
	 <title>Logo</title>
		<g transform="translate(0, 256) scale(0.1,-0.1)">
			<path d="M1508 2523 c7 -3 16 -2 19 1 4 3 -2 6 -13 5 -11 0 -14 -3 -6 -6z"/>
			<path d="M918 2493 c7 -3 16 -2 19 1 4 3 -2 6 -13 5 -11 0 -14 -3 -6 -6z"/>
			<path d="M1628 2493 c7 -3 16 -2 19 1 4 3 -2 6 -13 5 -11 0 -14 -3 -6 -6z"/>
			<path d="M1670 2480 c8 -5 22 -9 30 -9 10 0 8 3 -5 9 -27 12 -43 12 -25 0z"/>
			<path d="M778 2446 c-473 -207 -768 -650 -768 -1158 0 -53 4 -99 9 -103 5 -3
			11 5 13 17 5 38 41 30 54 -12 11 -31 12 -22 13 75 2 141 14 228 46 340 104
			365 381 661 743 794 66 24 156 46 262 64 14 3 -1 3 -33 1 -32 -2 -94 -13 -138
			-24 -44 -11 -84 -18 -89 -15 -6 3 -17 2 -26 -3 -9 -5 -33 -6 -55 -2 -25 5 -40
			3 -43 -4 -3 -7 -5 -6 -5 2 -1 7 9 16 22 21 51 20 91 39 82 40 -5 0 -45 -14
			-87 -33z m112 -30 c0 -2 -7 -7 -16 -10 -8 -3 -12 -2 -9 4 6 10 25 14 25 6z"/>
			<path d="M1268 2473 c23 -2 59 -2 80 0 20 2 1 4 -43 4 -44 0 -61 -2 -37 -4z"/>
			<path d="M1391 2466 c2 -2 31 -6 64 -9 39 -4 50 -3 30 2 -31 9 -102 14 -94 7z"/>
			<path d="M1765 2446 c28 -14 55 -25 60 -25 15 0 -56 36 -85 43 -14 3 -2 -5 25
			-18z"/>
			<path d="M1607 2422 c236 -74 443 -213 593 -398 157 -196 239 -410 262 -682 7
			-79 15 -135 19 -125 3 11 16 18 30 18 19 0 25 -7 30 -30 14 -67 8 207 -6 295
			-58 356 -285 684 -601 871 l-79 47 -107 0 c-59 1 -115 5 -125 10 -10 5 -38 12
			-63 16 -31 4 -16 -3 47 -22z"/>
			<path d="M1060 1566 l0 -136 -30 0 c-16 0 -30 -4 -30 -10 0 -5 14 -10 30 -10
			l30 0 0 -165 0 -165 50 0 50 0 -2 308 -3 307 -47 3 -48 3 0 -135z"/>
			<path d="M1287 1693 c-3 -2 -6 -142 -7 -309 l-1 -304 51 0 50 0 0 120 0 120
			73 0 72 0 50 -120 50 -120 53 0 c28 0 52 1 52 3 0 1 -25 58 -55 127 l-54 125
			34 30 c80 69 88 194 17 268 -51 54 -75 60 -234 63 -80 1 -149 0 -151 -3z m310
			-118 c32 -32 35 -40 30 -73 -4 -24 -17 -47 -37 -64 -28 -26 -36 -28 -120 -28
			l-90 0 0 100 0 100 91 0 c91 0 91 0 126 -35z"/>
			<path d="M310 1281 l0 -411 70 0 70 0 0 195 c0 107 3 195 8 194 4 0 43 -43 86
			-96 l80 -96 43 49 c24 27 48 56 52 64 7 11 -39 72 -185 245 -106 127 -198 229
			-204 228 -5 -2 -7 3 -4 11 3 8 1 17 -5 21 -8 4 -11 -116 -11 -404z m41 342
			c13 -16 12 -17 -3 -4 -10 7 -18 15 -18 17 0 8 8 3 21 -13z"/>
			<path d="M812 1547 c-109 -130 -131 -167 -103 -167 4 0 59 61 120 135 81 97
			112 141 109 157 -2 18 -27 -7 -126 -125z"/>
			<path d="M1980 1687 c0 -4 -186 -547 -199 -580 l-11 -28 53 3 52 3 21 60 21
			60 119 0 118 0 20 -62 20 -63 53 0 c29 0 53 2 53 4 0 5 -185 543 -199 579 -10
			25 -15 27 -66 27 -30 0 -55 -1 -55 -3z m99 -261 c22 -65 41 -120 41 -122 0 -2
			-38 -4 -85 -4 -47 0 -85 2 -85 5 0 2 16 53 36 112 20 59 38 114 40 122 6 20 8
			17 53 -113z"/>
			<path d="M833 1468 c-80 -96 -99 -125 -91 -136 10 -11 14 -10 27 6 9 11 51 63
			94 116 52 63 77 102 75 115 -2 16 -27 -8 -105 -101z"/>
			<path d="M857 1395 c-70 -84 -77 -97 -66 -116 7 -15 10 -81 8 -212 -3 -146 -1
			-191 9 -194 9 -4 12 44 12 214 0 208 4 243 30 243 3 0 4 -103 2 -230 -2 -201
			-1 -230 13 -230 13 0 15 32 15 254 0 213 2 256 15 266 13 11 15 -18 15 -254 0
			-232 2 -266 15 -266 14 0 16 37 15 310 -1 171 -2 310 -3 310 -1 0 -37 -43 -80
			-95z"/>
			<path d="M2461 1154 c0 -11 3 -14 6 -6 3 7 2 16 -1 19 -3 4 -6 -2 -5 -13z"/>
			<path d="M1238 1143 c6 -2 18 -2 25 0 6 3 1 5 -13 5 -14 0 -19 -2 -12 -5z"/>
			<path d="M1691 1044 c0 -11 3 -14 6 -6 3 7 2 16 -1 19 -3 4 -6 -2 -5 -13z"/>
			<path d="M1140 1027 c0 -18 -5 -23 -27 -22 -38 0 -60 -43 -41 -82 11 -23 20
			-28 51 -30 l37 -1 0 50 c0 27 5 59 11 70 8 15 8 19 0 14 -6 -4 -11 0 -11 8 0
			9 -4 16 -10 16 -5 0 -10 -10 -10 -23z m-12 -39 c31 -31 0 -105 -33 -78 -25 21
			-14 90 15 90 3 0 11 -5 18 -12z"/>
			<path d="M1415 1040 c3 -5 8 -10 11 -10 2 0 4 5 4 10 0 6 -5 10 -11 10 -5 0
			-7 -4 -4 -10z"/>
			<path d="M2110 1026 c0 -19 -4 -23 -20 -19 -30 8 -50 -15 -50 -57 0 -45 16
			-60 58 -57 36 2 43 15 37 67 -2 19 -4 47 -4 63 -1 33 -21 37 -21 3z m-6 -49
			c28 -42 -12 -101 -41 -61 -16 22 -16 39 -3 65 14 25 26 24 44 -4z"/>
			<path d="M2160 1039 c0 -5 5 -7 10 -4 6 3 10 8 10 11 0 2 -4 4 -10 4 -5 0 -10
			-5 -10 -11z"/>
			<path d="M1871 1028 c-1 -10 -6 -18 -13 -18 -9 0 -9 -3 0 -12 7 -7 12 -31 12
			-54 0 -24 5 -46 11 -49 14 -9 27 4 13 13 -13 9 -12 75 1 85 7 4 6 10 -1 15 -6
			4 -14 14 -17 22 -4 12 -6 11 -6 -2z"/>
			<path d="M1200 994 c-8 -8 -13 -28 -13 -44 0 -16 5 -36 13 -44 15 -19 51 -21
			68 -4 21 21 13 32 -9 12 -21 -19 -48 -12 -57 14 -3 10 39 18 71 13 12 -2 8 44
			-5 57 -17 17 -53 15 -68 -4z m60 -14 c10 -18 8 -20 -25 -20 -38 0 -46 13 -17
			29 24 15 30 14 42 -9z"/>
			<path d="M1310 995 c-15 -18 1 -42 37 -56 27 -10 30 -27 7 -36 -10 -4 -22 1
			-30 12 -8 10 -17 16 -20 12 -12 -11 17 -37 41 -37 27 0 49 24 41 45 -3 9 -20
			21 -36 27 -17 5 -29 15 -27 22 5 12 22 12 52 0 18 -7 18 -6 6 9 -17 21 -54 22
			-71 2z"/>
			<path d="M1423 950 c0 -36 2 -50 4 -32 2 17 2 47 0 65 -2 17 -4 3 -4 -33z"/>
			<path d="M1472 998 c-17 -17 -15 -83 3 -98 8 -7 24 -10 35 -7 13 3 20 0 20 -9
			0 -21 -29 -29 -51 -15 -22 13 -25 -1 -4 -19 19 -16 62 -5 69 18 6 20 9 64 7
			107 -1 27 -5 30 -34 32 -18 2 -39 -3 -45 -9z m55 -28 c14 -29 1 -60 -26 -60
			-30 0 -43 54 -19 78 16 16 30 10 45 -18z"/>
			<path d="M1580 948 c0 -32 4 -58 10 -58 6 0 10 7 10 16 0 8 5 12 10 9 6 -3 10
			-1 10 4 0 6 -4 11 -10 11 -15 0 -12 46 5 60 23 19 35 2 35 -51 0 -27 5 -49 10
			-49 15 0 12 96 -3 109 -7 6 -28 9 -45 8 -32 -2 -32 -2 -32 -59z"/>
			<path d="M1761 992 c-11 -21 5 -42 42 -55 22 -8 22 -26 1 -34 -10 -4 -22 1
			-30 12 -8 10 -17 16 -20 12 -11 -11 17 -37 40 -37 25 0 46 17 46 38 0 7 -16
			20 -36 28 -19 8 -33 20 -31 27 5 14 39 10 50 -6 5 -8 7 -4 5 8 -4 28 -53 33
			-67 7z"/>
			<path d="M1920 961 c0 -56 13 -71 58 -68 32 2 32 2 32 60 0 55 -1 57 -20 45
			-21 -13 -28 -48 -10 -48 14 0 12 -37 -2 -42 -28 -10 -38 4 -38 53 0 27 -4 49
			-10 49 -5 0 -10 -22 -10 -49z"/>
			<path d="M2160 950 c0 -33 4 -60 10 -60 6 0 10 27 10 60 0 33 -4 60 -10 60 -6
			0 -10 -27 -10 -60z"/>
			<path d="M2217 992 c-35 -38 -12 -102 37 -102 30 0 46 18 46 53 0 62 -47 89
			-83 49z m57 -8 c9 -8 16 -24 16 -34 0 -18 -25 -50 -39 -50 -15 0 -31 25 -31
			50 0 25 16 50 31 50 4 0 15 -7 23 -16z"/>
			<path d="M86 850 c12 -51 96 -215 151 -299 255 -382 750 -602 1208 -536 432
			62 793 321 975 700 41 86 65 160 28 85 -35 -68 -94 -63 -68 6 21 54 7 35 -46
			-66 -353 -671 -1206 -852 -1797 -381 -126 100 -230 228 -317 393 -50 94 -62
			110 -35 45 14 -33 13 -36 -4 -42 -31 -10 -48 4 -75 63 -14 31 -23 46 -20 32z"/>
		</g>
	</symbol>
</svg>